Coordinates
version=1
nRows=16
nColumns=36
inDegrees=yes

Units are S.I. units (second, meters, Newtons, ...)
If the header above contains a line with 'inDegrees', this indicates whether rotational values are in degrees (yes) or radians (no).

endheader
time	pelvis_tilt	pelvis_list	pelvis_rotation	pelvis_tx	pelvis_ty	pelvis_tz	hip_flexion_r	hip_adduction_r	hip_rotation_r	knee_angle_r	knee_angle_r_beta	ankle_angle_r	subtalar_angle_r	mtp_angle_r	hip_flexion_l	hip_adduction_l	hip_rotation_l	knee_angle_l	knee_angle_l_beta	ankle_angle_l	subtalar_angle_l	mtp_angle_l	lumbar_extension	lumbar_bending	lumbar_rotation	arm_flex_r	arm_add_r	arm_rot_r	elbow_flex_r	pro_sup_r	arm_flex_l	arm_add_l	arm_rot_l	elbow_flex_l	pro_sup_l
     17.80000000	    -13.90399089	    -15.37969214	    359.90276909	     -0.04606144	      1.05029705	      1.14364370	     20.16324967	     15.30475879	      5.30165537	     12.55189581	      0.21907191	      8.12373411	    -20.96701415	     -7.49999987	     13.94823618	     -9.93827183	      0.27373170	     31.63524189	      0.55213913	     -0.07312038	    -11.54359046	     -7.49999987	      2.16814293	     18.08490262	     14.60851874	     29.19922090	     11.91489795	   -113.16396118	     36.10313545	      6.77754516	     11.05626577	      7.76372138	    -11.41292424	     26.43373780	     88.55947438
     17.81666670	    -13.64450875	    -14.13351562	    359.91300141	     -0.01204981	      1.06154077	      1.13487029	     17.99770552	     15.22053588	      7.90852702	     11.59003169	      0.20228421	     10.12193975	    -17.35574910	     -7.49999987	     14.45737244	     -7.88338943	     -0.27334420	     29.18721057	      0.50941292	      2.72168034	    -13.17010674	     -7.49999987	      2.76719948	     16.98258493	     14.77831115	     26.29515217	     10.75356994	   -112.56204650	     34.53092910	      8.21991145	      9.05267520	      7.21848334	    -10.98987863	     26.28380426	     88.85780534
     17.83333330	    -13.37133946	    -13.60323849	    359.92316852	      0.02331628	      1.06311700	      1.12727865	     15.29038167	     15.51996541	     10.97120418	     10.06523661	      0.17567152	     12.49572767	    -13.92141492	     -7.49999987	     14.06425629	     -6.38026167	     -0.38976729	     25.64240824	      0.44754445	      7.28515007	    -12.61899184	     -7.49999987	      3.86137639	     16.58810213	     15.70994127	     22.21812209	      9.15558115	   -110.72012104	     32.55717774	      7.14208460	      6.80553217	      7.11263224	    -10.31049618	     25.27273069	     89.40567248
     17.85000000	    -13.96067092	    -13.02206841	    359.92596717	      0.01189780	      1.04771339	      1.14913444	     14.58288142	     15.88012493	     12.47291812	     10.51221217	      0.18347271	     16.31912587	    -12.20372866	     -7.49999987	     17.26642842	     -5.61765788	      0.38438473	     24.35416622	      0.42506039	     11.02600319	    -13.03577063	     -7.49999987	      3.21483623	     14.95402432	     17.35880731	     19.61798747	      8.33005573	    -99.35017526	     29.79720000	      6.75246500	      7.38400127	      6.59174050	    -12.96872894	     25.95887946	     90.48737462
     17.86666670	    -14.71684230	    -12.10956538	    359.93125857	      0.03351976	      1.05325756	      1.15648383	     14.50233067	     15.58996578	     13.02029356	     12.49102583	      0.21800953	     19.11255855	     -9.49896025	     -7.49999987	     20.01202892	     -4.88252275	      0.72463354	     22.89836120	      0.39965180	     13.23187296	    -12.54575858	     -7.49999987	      3.10843485	     11.36403523	     22.10468305	     13.26405509	     -1.89417767	    -12.92774707	      4.62686322	    108.21827712	      9.41196289	      6.26181251	    -13.04102708	     24.91980905	     95.13723040
     17.88333330	    -15.17916858	    -10.92070900	    359.93148028	      0.05337540	      1.05722372	      1.15414840	     13.87630353	     14.69794618	     13.21538419	     12.33675402	      0.21531698	     19.68735059	     -6.95764359	     -7.49999987	     22.07066689	     -3.39623162	      1.52507902	     20.86846290	      0.36422339	     13.90778438	    -11.93352021	     -7.49999987	      2.12817763	      9.07967708	     23.12097260	     12.50143959	     -1.94177332	    -11.76415840	      5.77734284	    108.13025839	      9.60105676	      5.43453661	    -12.77351806	     25.27755475	     94.32801315
     17.90000000	    -15.55887493	     -9.73569125	    359.93019983	      0.06942113	      1.05327523	      1.15589479	     12.39842981	     13.54724342	     13.27342392	     11.82174194	      0.20632832	     20.81167256	     -3.89727870	     -7.49999987	     24.01554469	     -2.06733013	      1.71486176	     19.53614163	      0.34096999	     13.40949052	    -11.45986656	     -7.49999987	      1.89994836	      7.00883978	     25.02875334	     11.12547672	     -2.32843451	     -9.84529457	      7.38682775	    108.87899659	     10.98832704	      5.15802235	    -12.36395095	     23.27019561	     94.48817135
     17.91666670	    -15.70143860	     -9.21660131	    359.92579607	      0.08462933	      1.04892717	      1.15884315	     11.24369195	     12.60541994	     11.87339722	     10.97463511	      0.19154352	     20.11439025	     -1.96433609	     -7.49999987	     25.21239985	     -1.10495024	      2.11117101	     18.29627686	      0.31933027	     12.01425430	    -10.39028394	     -7.49999987	      1.06943459	      5.95385447	     24.78142741	     10.76803243	     -2.43400159	     -9.18580502	      9.44614564	    107.81084916	     10.44712991	      4.66898079	    -13.27505627	     24.81867792	     92.86320701
     17.93333330	    -16.23600982	     -9.06632803	    359.91371859	      0.10048881	      1.04382372	      1.16352314	      7.34959796	     11.57305976	      7.68592997	      4.88491032	      0.08525777	     18.65468322	      5.55792552	     -7.49999987	     26.58956403	     -0.65972064	      3.44933428	     16.99893020	      0.29668730	     10.01185073	    -10.60633817	     -7.49999987	      1.04161242	      5.48006050	     24.44570575	     10.17626174	     -2.54107391	     -8.63850781	     11.74897865	    107.96587322	     10.11341205	      4.09004146	    -13.69406427	     25.18227271	     91.92167965
     17.95000000	    -16.58366170	     -7.31656712	    359.85529037	      0.11462091	      1.03535492	      1.16313316	      1.90756082	      9.79088074	     -8.99749356	      1.64361598	      0.02868651	      1.06528962	     22.01532518	     -7.49999987	     27.57329320	      1.55369479	      4.56457848	     15.37704216	      0.26838001	      2.90704184	    -12.12125476	     -7.49999987	      1.06172436	      2.65142090	     24.47662297	      8.93793218	     -2.13097716	    -11.88337444	     16.25987270	    109.53136997	      9.99786100	      3.70551447	    -16.60910276	     25.99773365	     96.19097266
     17.96666670	    -18.15893949	     -7.45115077	    359.75935136	      0.13434813	      1.03075478	      1.16428712	      3.08240406	     10.42048984	    -17.26695307	      1.82257812	      0.03180999	     -8.25575987	     31.47746001	     -7.49999987	     30.65862343	      1.59812073	      4.63517970	     14.35322938	      0.25051111	      1.23917144	    -12.62147115	     -7.49999987	      1.89955489	      2.67320535	     24.66645556	      4.78502309	     -1.73357911	    -16.89423124	     25.49729273	    110.21760379	      9.54027275	      2.97553488	    -14.39212167	     25.49627009	     95.93803686
     17.98333330	    -19.22165166	     -8.76611529	    359.71352861	      0.15428900	      1.02866434	      1.16618589	      3.53703899	     12.32489656	    -13.29484674	      1.04075549	      0.01816461	     -1.40437541	     33.90542265	     -7.49999987	     33.00149854	      0.62754584	      4.53692934	     12.43728483	      0.21707157	     -0.29017689	    -10.71672976	     -7.49999987	      2.72414711	      3.94304661	     23.02800995	      3.28119746	     -2.00816150	    -14.83692345	     29.97969903	    109.53485041	      8.55866769	      2.17023660	    -14.13237207	     25.03981525	     94.35809305
     18.00000000	    -19.93347719	     -9.61104450	    359.69407813	      0.17246684	      1.03166137	      1.16235079	      4.12957332	     12.95539222	     -9.63137401	      0.65966665	      0.01151336	      7.59026223	     34.14148680	     -7.49999987	     34.65011887	      0.28004039	      2.26464504	      9.79465525	      0.17094898	     -1.40668448	     -7.41692369	     -7.49999987	      3.11826561	      5.12235725	     21.85560082	      2.88922845	     -2.40367408	    -13.96722996	     31.10421758	    108.53582147	      7.97197258	      1.69486450	    -13.44726889	     23.29708444	     92.65610581
     18.01666670	    -19.51899006	     -9.38972965	    359.70921296	      0.19382353	      1.03737254	      1.16214506	      3.37942255	     12.08723184	     -8.01185834	      0.61174741	      0.01067701	     15.79104524	     33.97655845	     -7.49999987	     34.08512830	      0.73402267	      0.31618927	      6.56420288	      0.11456695	     -2.91204999	     -4.91192070	     -7.49999987	      2.76627604	      5.02182745	     20.85621804	      3.39942676	     -2.50529578	    -13.09479494	     30.30744393	    107.57738490	      7.65835704	      1.18347302	    -12.10911239	     21.38180463	     90.61576528
     18.03333330	    -18.72207292	     -7.94608448	    359.69861133	      0.21205088	      1.04120477	      1.15792934	      1.68012104	      9.54426210	     -7.60409846	      0.58411887	      0.01019480	     19.91858482	     33.38807575	     -7.49999987	     32.70112403	      2.79900496	     -2.92495780	      3.10023368	      0.05410929	     -4.41465415	     -1.24827978	     -7.49999987	      2.06751210	      3.73551332	     19.95815689	      4.77391187	     -2.46033583	    -12.34990025	     28.20169565	    109.68276546	      7.43427177	      0.56030564	     -9.83590547	     19.77324976	     91.54927474
     18.05000000	    -17.31835811	     -5.81176559	    359.65807320	      0.23318215	      1.04333533	      1.15607804	     -1.02789312	      5.93250863	     -8.79602244	      1.03476406	      0.01806004	     22.31326434	     30.85097898	     -7.49999987	     30.75005785	      5.20255207	     -5.61219584	      0.98006370	      0.01710534	     -5.34759729	      0.73955130	     -7.49999987	      0.90923578	      1.72860858	     18.64671730	      5.45504250	     -1.96883147	    -12.58680230	     27.76981631	    109.10691229	      7.18377633	      0.05064112	     -9.24332951	     18.21858526	     90.86789875
